<svg width="209" height="55" viewBox="0 0 209 55" fill="none" xmlns="http://www.w3.org/2000/svg">
<g filter="url(#filter0_d_2_28)">
<path d="M16.6818 47H4.59091L28.0227 0.454544H43L50.9773 47H38.8864L33.7727 12.1818H33.4091L16.6818 47ZM18.1364 28.6818H43.4091L41.9545 37.2273H16.6818L18.1364 28.6818ZM103.33 0.454544L95.6023 47H86.0568L72.0341 20.1364H71.7159L67.2386 47H55.9886L63.7159 0.454544H73.3977L87.3068 27.2727H87.6932L92.1023 0.454544H103.33ZM107.335 9.59091L108.881 0.454544H148.222L146.676 9.59091H132.562L126.381 47H115.29L121.472 9.59091H107.335ZM145.989 47L153.716 0.454544H186.17L184.625 9.59091H163.42L161.875 19.1364H181.42L179.875 28.2955H160.33L158.784 37.8636H179.989L178.443 47H145.989ZM204.466 0.454544L196.739 47H185.489L193.216 0.454544H204.466Z" fill="black"/>
<path d="M16.6818 47V47.5H16.9963L17.1325 47.2165L16.6818 47ZM4.59091 47L4.14431 46.7752L3.77942 47.5H4.59091V47ZM28.0227 0.454544V-0.0454559H27.7147L27.5761 0.229717L28.0227 0.454544ZM43 0.454544L43.4928 0.370082L43.4216 -0.0454559H43V0.454544ZM50.9773 47V47.5H51.5703L51.4701 46.9155L50.9773 47ZM38.8864 47L38.3917 47.0727L38.4544 47.5H38.8864V47ZM33.7727 12.1818L34.2674 12.1092L34.2047 11.6818H33.7727V12.1818ZM33.4091 12.1818V11.6818H33.0946L32.9584 11.9653L33.4091 12.1818ZM18.1364 28.6818V28.1818H17.7143L17.6435 28.5979L18.1364 28.6818ZM43.4091 28.6818L43.902 28.7657L44.0014 28.1818H43.4091V28.6818ZM41.9545 37.2273V37.7273H42.3766L42.4475 37.3112L41.9545 37.2273ZM16.6818 37.2273L16.1889 37.1434L16.0895 37.7273H16.6818V37.2273ZM16.6818 46.5H4.59091V47.5H16.6818V46.5ZM5.03751 47.2248L28.4693 0.679371L27.5761 0.229717L4.14431 46.7752L5.03751 47.2248ZM28.0227 0.954544H43V-0.0454559H28.0227V0.954544ZM42.5072 0.539006L50.4845 47.0845L51.4701 46.9155L43.4928 0.370082L42.5072 0.539006ZM50.9773 46.5H38.8864V47.5H50.9773V46.5ZM39.3811 46.9273L34.2674 12.1092L33.278 12.2545L38.3917 47.0727L39.3811 46.9273ZM33.7727 11.6818H33.4091V12.6818H33.7727V11.6818ZM32.9584 11.9653L16.2311 46.7835L17.1325 47.2165L33.8598 12.3983L32.9584 11.9653ZM18.1364 29.1818H43.4091V28.1818H18.1364V29.1818ZM42.9162 28.5979L41.4616 37.1434L42.4475 37.3112L43.902 28.7657L42.9162 28.5979ZM41.9545 36.7273H16.6818V37.7273H41.9545V36.7273ZM17.1747 37.3112L18.6293 28.7657L17.6435 28.5979L16.1889 37.1434L17.1747 37.3112ZM103.33 0.454544L103.823 0.536431L103.919 -0.0454559H103.33V0.454544ZM95.6023 47V47.5H96.0261L96.0955 47.0819L95.6023 47ZM86.0568 47L85.6136 47.2314L85.7538 47.5H86.0568V47ZM72.0341 20.1364L72.4773 19.905L72.3371 19.6364H72.0341V20.1364ZM71.7159 20.1364V19.6364H71.2923L71.2227 20.0542L71.7159 20.1364ZM67.2386 47V47.5H67.6622L67.7318 47.0822L67.2386 47ZM55.9886 47L55.4954 46.9181L55.3988 47.5H55.9886V47ZM63.7159 0.454544V-0.0454559H63.2921L63.2227 0.372657L63.7159 0.454544ZM73.3977 0.454544L73.8416 0.224342L73.7017 -0.0454559H73.3977V0.454544ZM87.3068 27.2727L86.863 27.5029L87.0029 27.7727H87.3068V27.2727ZM87.6932 27.2727V27.7727H88.1177L88.1866 27.3538L87.6932 27.2727ZM92.1023 0.454544V-0.0454559H91.6778L91.6089 0.37343L92.1023 0.454544ZM102.836 0.372657L95.109 46.9181L96.0955 47.0819L103.823 0.536431L102.836 0.372657ZM95.6023 46.5H86.0568V47.5H95.6023V46.5ZM86.5001 46.7686L72.4773 19.905L71.5908 20.3677L85.6136 47.2314L86.5001 46.7686ZM72.0341 19.6364H71.7159V20.6364H72.0341V19.6364ZM71.2227 20.0542L66.7454 46.9178L67.7318 47.0822L72.2091 20.2186L71.2227 20.0542ZM67.2386 46.5H55.9886V47.5H67.2386V46.5ZM56.4819 47.0819L64.2092 0.536431L63.2227 0.372657L55.4954 46.9181L56.4819 47.0819ZM63.7159 0.954544H73.3977V-0.0454559H63.7159V0.954544ZM72.9539 0.684747L86.863 27.5029L87.7507 27.0425L73.8416 0.224342L72.9539 0.684747ZM87.3068 27.7727H87.6932V26.7727H87.3068V27.7727ZM88.1866 27.3538L92.5956 0.535658L91.6089 0.37343L87.1998 27.1916L88.1866 27.3538ZM92.1023 0.954544H103.33V-0.0454559H92.1023V0.954544ZM107.335 9.59091L106.842 9.50752L106.744 10.0909H107.335V9.59091ZM108.881 0.454544V-0.0454559H108.458L108.388 0.371152L108.881 0.454544ZM148.222 0.454544L148.715 0.537937L148.813 -0.0454559H148.222V0.454544ZM146.676 9.59091V10.0909H147.099L147.169 9.6743L146.676 9.59091ZM132.562 9.59091V9.09091H132.138L132.069 9.50939L132.562 9.59091ZM126.381 47V47.5H126.805L126.874 47.0815L126.381 47ZM115.29 47L114.796 46.9185L114.7 47.5H115.29V47ZM121.472 9.59091L121.965 9.67243L122.061 9.09091H121.472V9.59091ZM107.828 9.6743L109.374 0.537937L108.388 0.371152L106.842 9.50752L107.828 9.6743ZM108.881 0.954544H148.222V-0.0454559H108.881V0.954544ZM147.729 0.371152L146.183 9.50752L147.169 9.6743L148.715 0.537937L147.729 0.371152ZM146.676 9.09091H132.562V10.0909H146.676V9.09091ZM132.069 9.50939L125.887 46.9185L126.874 47.0815L133.056 9.67243L132.069 9.50939ZM126.381 46.5H115.29V47.5H126.381V46.5ZM115.783 47.0815L121.965 9.67243L120.978 9.50939L114.796 46.9185L115.783 47.0815ZM121.472 9.09091H107.335V10.0909H121.472V9.09091ZM145.989 47L145.495 46.9181L145.399 47.5H145.989V47ZM153.716 0.454544V-0.0454559H153.292L153.223 0.372657L153.716 0.454544ZM186.17 0.454544L186.663 0.537937L186.762 -0.0454559H186.17V0.454544ZM184.625 9.59091V10.0909H185.048L185.118 9.6743L184.625 9.59091ZM163.42 9.59091V9.09091H162.995L162.927 9.511L163.42 9.59091ZM161.875 19.1364L161.381 19.0565L161.288 19.6364H161.875V19.1364ZM181.42 19.1364L181.913 19.2196L182.012 18.6364H181.42V19.1364ZM179.875 28.2955V28.7955H180.298L180.368 28.3786L179.875 28.2955ZM160.33 28.2955V27.7955H159.904L159.836 28.2157L160.33 28.2955ZM158.784 37.8636L158.29 37.7839L158.197 38.3636H158.784V37.8636ZM179.989 37.8636L180.482 37.947L180.58 37.3636H179.989V37.8636ZM178.443 47V47.5H178.866L178.936 47.0834L178.443 47ZM146.482 47.0819L154.209 0.536431L153.223 0.372657L145.495 46.9181L146.482 47.0819ZM153.716 0.954544H186.17V-0.0454559H153.716V0.954544ZM185.677 0.371152L184.132 9.50752L185.118 9.6743L186.663 0.537937L185.677 0.371152ZM184.625 9.09091H163.42V10.0909H184.625V9.09091ZM162.927 9.511L161.381 19.0565L162.369 19.2163L163.914 9.67082L162.927 9.511ZM161.875 19.6364H181.42V18.6364H161.875V19.6364ZM180.927 19.0532L179.382 28.2123L180.368 28.3786L181.913 19.2196L180.927 19.0532ZM179.875 27.7955H160.33V28.7955H179.875V27.7955ZM159.836 28.2157L158.29 37.7839L159.278 37.9434L160.823 28.3752L159.836 28.2157ZM158.784 38.3636H179.989V37.3636H158.784V38.3636ZM179.496 37.7802L177.95 46.9166L178.936 47.0834L180.482 37.947L179.496 37.7802ZM178.443 46.5H145.989V47.5H178.443V46.5ZM204.466 0.454544L204.959 0.536431L205.056 -0.0454559H204.466V0.454544ZM196.739 47V47.5H197.162L197.232 47.0819L196.739 47ZM185.489 47L184.995 46.9181L184.899 47.5H185.489V47ZM193.216 0.454544V-0.0454559H192.792L192.723 0.372657L193.216 0.454544ZM203.973 0.372657L196.245 46.9181L197.232 47.0819L204.959 0.536431L203.973 0.372657ZM196.739 46.5H185.489V47.5H196.739V46.5ZM185.982 47.0819L193.709 0.536431L192.723 0.372657L184.995 46.9181L185.982 47.0819ZM193.216 0.954544H204.466V-0.0454559H193.216V0.954544Z" fill="black"/>
</g>
<defs>
<filter id="filter0_d_2_28" x="0.590881" y="0.454544" width="207.875" height="54.5455" filterUnits="userSpaceOnUse" color-interpolation-filters="sRGB">
<feFlood flood-opacity="0" result="BackgroundImageFix"/>
<feColorMatrix in="SourceAlpha" type="matrix" values="0 0 0 0 0 0 0 0 0 0 0 0 0 0 0 0 0 0 127 0" result="hardAlpha"/>
<feOffset dy="4"/>
<feGaussianBlur stdDeviation="2"/>
<feComposite in2="hardAlpha" operator="out"/>
<feColorMatrix type="matrix" values="0 0 0 0 0 0 0 0 0 0 0 0 0 0 0 0 0 0 0.25 0"/>
<feBlend mode="normal" in2="BackgroundImageFix" result="effect1_dropShadow_2_28"/>
<feBlend mode="normal" in="SourceGraphic" in2="effect1_dropShadow_2_28" result="shape"/>
</filter>
</defs>
</svg>
